<svg xmlns="http://www.w3.org/2000/svg" version="1.1" xmlns:xlink="http://www.w3.org/1999/xlink" width="200" height="200"><svg xmlns="http://www.w3.org/2000/svg" version="1.1" xmlns:xlink="http://www.w3.org/1999/xlink" width="200" height="200"><svg xmlns="http://www.w3.org/2000/svg" version="1.1" xmlns:xlink="http://www.w3.org/1999/xlink" viewBox="0 0 200 200"><rect width="200" height="200" fill="url('#gradient')"></rect><defs><linearGradient id="gradient" gradientTransform="rotate(45 0.5 0.5)"><stop offset="0%" stop-color="#4dbdc4"></stop><stop offset="100%" stop-color="#294359"></stop></linearGradient></defs><g><g fill="#ffffff" transform="matrix(4.420143884892086,0,0,4.420143884892086,9.081231921739715,131.43147965986952)" stroke="#494949" stroke-width="0.2"><path d="M10.11-14.22L12.09-5.30L13.72-14.22L17.12-14.22L14.10 0L10.55 0L8.64-8.11L6.78 0L3.23 0L0.21-14.22L3.61-14.22L5.24-5.30L7.20-14.22L10.11-14.22ZM27.41-8.30L27.41-5.66L21.88-5.66L21.88 0L18.46 0L18.46-14.22L27.97-14.22L27.97-11.57L21.88-11.57L21.88-8.30L27.41-8.30ZM37.49-4.81L40.90-4.81Q40.83-3.33 40.10-2.19Q39.37-1.05 38.04-0.43Q36.72 0.20 35.02 0.20L35.02 0.20Q32.22 0.20 30.61-1.63Q28.99-3.46 28.99-6.79L28.99-6.79L28.99-7.49Q28.99-9.58 29.72-11.15Q30.45-12.71 31.82-13.57Q33.18-14.42 34.98-14.42L34.98-14.42Q37.57-14.42 39.14-13.06Q40.71-11.70 40.93-9.31L40.93-9.31L37.51-9.31Q37.47-10.61 36.86-11.17Q36.24-11.74 34.98-11.74L34.98-11.74Q33.70-11.74 33.11-10.78Q32.51-9.82 32.48-7.72L32.48-7.72L32.48-6.72Q32.48-4.44 33.05-3.47Q33.62-2.49 35.02-2.49L35.02-2.49Q36.20-2.49 36.83-3.05Q37.45-3.60 37.49-4.81L37.49-4.81Z"></path></g></g></svg></svg><style>@media (prefers-color-scheme: light) { :root { filter: contrast(1) brightness(1); } }
@media (prefers-color-scheme: dark) { :root { filter: none; } }
</style></svg>